<?xml version="1.0" encoding="UTF-8" standalone="no"?>
<!-- Created with Inkscape (http://www.inkscape.org/) -->

<svg
   xmlns:dc="http://purl.org/dc/elements/1.1/"
   xmlns:cc="http://creativecommons.org/ns#"
   xmlns:rdf="http://www.w3.org/1999/02/22-rdf-syntax-ns#"
   xmlns:svg="http://www.w3.org/2000/svg"
   xmlns="http://www.w3.org/2000/svg"
   xmlns:xlink="http://www.w3.org/1999/xlink"
   xmlns:sodipodi="http://sodipodi.sourceforge.net/DTD/sodipodi-0.dtd"
   xmlns:inkscape="http://www.inkscape.org/namespaces/inkscape"
   width="744.09448819"
   height="1052.3622047"
   id="svg2"
   version="1.1"
   inkscape:version="0.48.4 r9939"
   sodipodi:docname="Новый документ 1">
  <defs
     id="defs4">
    <linearGradient
       x1="275.91"
       y1="516.85"
       x2="272.94"
       gradientUnits="userSpaceOnUse"
       y2="509.74"
       id="linearGradient3992">
      <stop
         offset="0"
         stop-color="#ccc"
         id="stop3988" />
      <stop
         offset="1"
         stop-opacity="0"
         stop-color="#ccc"
         id="stop3990" />
    </linearGradient>
    <linearGradient
       inkscape:collect="always"
       xlink:href="#linearGradient3992"
       id="linearGradient3102"
       gradientUnits="userSpaceOnUse"
       x1="275.91"
       y1="516.85"
       x2="272.94"
       y2="509.74" />
  </defs>
  <sodipodi:namedview
     id="base"
     pagecolor="#ffffff"
     bordercolor="#666666"
     borderopacity="1.0"
     inkscape:pageopacity="0.0"
     inkscape:pageshadow="2"
     inkscape:zoom="5.6"
     inkscape:cx="291.53511"
     inkscape:cy="581.94226"
     inkscape:document-units="px"
     inkscape:current-layer="text3946"
     showgrid="false"
     inkscape:window-width="1366"
     inkscape:window-height="706"
     inkscape:window-x="-8"
     inkscape:window-y="-8"
     inkscape:window-maximized="1" />
  <metadata
     id="metadata7">
    <rdf:RDF>
      <cc:Work
         rdf:about="">
        <dc:format>image/svg+xml</dc:format>
        <dc:type
           rdf:resource="http://purl.org/dc/dcmitype/StillImage" />
        <dc:title></dc:title>
      </cc:Work>
    </rdf:RDF>
  </metadata>
  <g
     inkscape:label="Layer 1"
     inkscape:groupmode="layer"
     id="layer1">
    <g
       transform="matrix(1.5814,0,0,1.5812,-153.663,-365.04083)"
       id="g3952">
      <path
         d="m 250.9,530.96 c -1.264,0.76534 -2.2315,1.3824 -4.5,2.65 1.6316,-0.51585 3.6725,-1.2227 3.4,-0.85"
         id="path3764"
         inkscape:connector-curvature="0"
         style="fill:#4d4d4d" />
      <path
         d="m 267.98,540.03 0.63718,-2.7265"
         id="path3764-9"
         inkscape:connector-curvature="0"
         style="fill:none;stroke:#000000;stroke-width:1px" />
      <path
         d="m 264.58,539.73 0.63718,-2.7265"
         id="path3764-9-2"
         inkscape:connector-curvature="0"
         style="fill:none;stroke:#000000;stroke-width:1px" />
      <path
         d="m 261.08,539.63 0.63718,-2.7265"
         id="path3764-9-17"
         inkscape:connector-curvature="0"
         style="fill:none;stroke:#000000;stroke-width:1px" />
      <path
         d="m 275.47,545.49 h 4.2 c -0.90638,-7.0377 1.9244,-14.228 4.5333,-19.125 -4.7874,5.9087 -10.753,11.515 -8.7333,19.125 z"
         id="path3866"
         inkscape:connector-curvature="0"
         style="fill:#4d4d4d" />
      <path
         d="m 256.6,545.49 h 3.4667 c 0.003,-1.9533 -0.18167,-4.0481 0.66667,-5.325 l -4,-1.6 z"
         id="path3886"
         inkscape:connector-curvature="0"
         style="fill:#4d4d4d" />
      <path
         d="m 271.87,537.9 -1.4,2.6667 m -12.752,-0.3034 0.50385,-3.2599 m -8.8186,8.4883 0.5,-13.925 c 5.734,-10.586 16.119,-15.577 25.7,-18.6 2.0229,-4.7711 7.3839,-6.9019 11.9,-5.7 9.0186,2.4002 6.3,11.9 6.3,11.9 l -1,6.8 c -8.3432,14.713 -4.0328,16.331 -2,18 l -1,1.55 c -1.8456,-0.82768 -5.669,-4.4079 -5.2,-9.55 l 1.45,-9.45 c -9.6708,11.811 -9.4119,7.5185 -9.8333,18.975 h -5.8167 v -4.925 c -3.4819,0.93214 -7.9733,2.1726 -12.7,-0.3 l -0.1,5.225 z"
         id="path3888"
         inkscape:connector-curvature="0"
         style="fill:#b3b3b3" />
      <path
         transform="matrix(1,0,0,0.63333,-2.8392,191.76)"
         style="color:#000000;fill:#e6e6e6"
         d="m 290,516.91 c 0,0.41421 -0.33579,0.75 -0.75,0.75 -0.41421,0 -0.75,-0.33579 -0.75,-0.75 0,-0.41421 0.33579,-0.75 0.75,-0.75 0.41421,0 0.75,0.33579 0.75,0.75 z"
         id="path3861"
         inkscape:connector-curvature="0" />
      <path
         d="m 286.3,526.21 c -1.639,-0.29716 -2.1815,-0.38758 -3.2,-2.37 0.13158,2.5842 2.3775,3.2623 2.105,3.635"
         id="path3764-5"
         inkscape:connector-curvature="0"
         style="fill:#4d4d4d" />
      <path
         d="m 279.62,512.81 0.2,10.6 c -3.6005,-0.31942 -5.4602,-2.5538 -6.4,-5.8 2.344,0.0641 4.3546,-1.8721 6.2,-4.8 z"
         id="path3766"
         inkscape:connector-curvature="0"
         style="fill:url(#linearGradient3102)" />
      <path
         d="m 287.13,523.99 c 15.336,1.7678 16.639,-2.1738 13.967,-8.2875 2.0775,3.8667 7.8148,11.239 -14.611,10.488 -0.92275,-0.53333 -0.7181,-1.8267 0.64402,-2.2 z"
         id="path3863"
         inkscape:connector-curvature="0"
         style="fill:#cccccc" />
    </g>
    <g
       id="text3946"
       style="fill:#999999"
       transform="translate(18.287,-47.750834)" />
  </g>
</svg>
